<svg xmlns="http://www.w3.org/2000/svg" version="1.0" preserveAspectRatio="xMidYMid meet" viewBox="25.8 17 140.2 158">

<g transform="translate(0.000000,192.000000) scale(0.100000,-0.100000)" fill="#000000" stroke="none">
<path d="M929 1705 c-18 -42 -19 -54 -9 -196 13 -181 3 -267 -42 -379 -17 -41 -34 -78 -38 -83 -3 -4 -21 -2 -38 4 -55 19 -56 95 -2 106 25 4 28 9 25 32 -3 14 -12 82 -21 151 -13 101 -21 136 -47 183 -28 53 -107 137 -128 137 -5 0 -9 -182 -9 -405 l0 -405 93 0 94 0 12 -42 c14 -48 44 -90 98 -142 l37 -35 47 40 c46 39 99 124 99 161 0 16 10 18 95 18 l95 0 0 405 c0 223 -3 405 -7 405 -16 0 -75 -54 -101 -93 -44 -64 -62 -121 -78 -237 -18 -137 -18 -170 0 -170 24 0 46 -30 46 -61 0 -25 -6 -33 -36 -45 -20 -8 -37 -14 -39 -12 -9 11 -45 90 -59 130 -31 94 -37 165 -25 333 12 156 11 161 -10 203 -12 23 -24 42 -27 42 -3 0 -14 -20 -25 -45z m-214 -221 c18 -38 45 -185 45 -245 0 -25 -7 -42 -25 -59 -14 -13 -25 -30 -25 -37 0 -8 -8 -13 -17 -11 -16 3 -18 22 -21 207 -2 176 0 202 12 192 8 -7 22 -28 31 -47z m525 -149 c0 -228 -2 -233 -59 -164 l-34 41 12 104 c7 57 17 118 23 136 11 32 45 88 54 88 2 0 4 -92 4 -205z m-230 -304 c0 -3 -13 -13 -28 -22 -24 -14 -32 -14 -47 -3 -10 7 -23 15 -28 17 -7 2 1 30 18 70 l29 67 28 -61 c15 -34 28 -64 28 -68z m-286 13 c15 -20 42 -41 58 -46 24 -8 29 -15 24 -32 -3 -11 -6 -29 -6 -38 0 -15 -10 -18 -65 -18 l-65 0 0 78 c0 105 8 113 54 56z m514 -52 l3 -82 -66 0 c-55 0 -65 3 -65 18 0 9 -3 26 -6 37 -4 16 3 24 33 38 21 9 47 30 57 47 28 49 41 33 44 -58z m-317 -60 c8 -20 5 -22 -26 -22 -32 0 -35 3 -35 28 0 16 3 32 7 35 10 11 45 -16 54 -41z m131 8 c4 -29 3 -30 -34 -30 l-39 0 16 30 c9 17 24 30 34 30 13 0 20 -9 23 -30z m-122 -146 c0 -51 -1 -55 -17 -43 -16 14 -43 69 -43 89 0 5 14 10 30 10 30 0 30 0 30 -56z m110 40 c0 -20 -41 -94 -52 -94 -4 0 -8 25 -8 55 0 54 0 55 30 55 21 0 30 -5 30 -16z"/>
<path d="M844 481 c-46 -21 -74 -54 -74 -88 0 -22 4 -23 65 -23 52 0 69 4 86 21 16 16 30 19 67 17 34 -2 47 -7 47 -18 0 -11 -27 -22 -89 -38 -135 -34 -177 -66 -191 -144 l-7 -38 221 0 221 0 0 45 0 44 -127 3 -128 3 60 13 c33 7 81 17 106 23 106 24 129 112 46 173 -24 18 -45 21 -145 24 -98 2 -124 0 -158 -17z"/>
<path d="M262 387 c6 -179 44 -212 248 -212 204 0 242 33 248 212 l4 103 -86 0 -86 0 0 -79 c0 -44 -4 -91 -9 -104 -19 -49 -116 -54 -141 -7 -6 10 -10 57 -10 104 l0 86 -86 0 -86 0 4 -103z"/>
<path d="M1288 407 c-87 -81 -88 -83 -88 -130 l0 -47 120 0 120 0 0 -30 0 -30 74 0 c74 0 75 0 78 27 2 23 8 29 36 31 31 3 32 5 32 48 0 44 0 44 -35 44 l-35 0 0 85 0 85 -107 0 -108 -1 -87 -82z m152 -47 l0 -40 -42 0 -42 0 39 40 c21 22 40 40 42 40 2 0 3 -18 3 -40z"/>
</g>
</svg>